<?xml version="1.0" encoding="UTF-8" standalone="no"?>
<svg
   xmlns:dc="http://purl.org/dc/elements/1.1/"
   xmlns:cc="http://creativecommons.org/ns#"
   xmlns:rdf="http://www.w3.org/1999/02/22-rdf-syntax-ns#"
   xmlns:svg="http://www.w3.org/2000/svg"
   xmlns="http://www.w3.org/2000/svg"
   viewBox="0 0 384 63.599998"
   height="63.599998"
   width="384"
   xml:space="preserve"
   id="svg2"
   version="1.1"><metadata
     id="metadata8"><rdf:RDF><cc:Work
         rdf:about=""><dc:format>image/svg+xml</dc:format><dc:type
           rdf:resource="http://purl.org/dc/dcmitype/StillImage" /></cc:Work></rdf:RDF></metadata><defs
     id="defs6" /><g
     transform="matrix(1.3333333,0,0,-1.3333333,0,63.6)"
     id="g10"><g
       transform="scale(0.1)"
       id="g12"><path
         id="path14"
         style="fill:#1f513c;fill-opacity:0;fill-rule:nonzero;stroke:none"
         d="M 0,0 H 2880 V 477.004 H 0 Z" /><path
         id="path16"
         style="fill:#fbbf16;fill-opacity:1;fill-rule:evenodd;stroke:none"
         d="m 793.121,371.176 c 3.567,0 7.117,0 10.68,0 -0.699,-30.336 -0.145,-64.531 -0.387,-91.703 -4.129,0 -8.238,0 -12.363,0 -6.164,20.246 -12.113,40.679 -24.25,55.918 -11.946,14.996 -27.996,27.375 -54.278,25.507 -23.96,-1.726 -43.125,-20.742 -39.882,-50.589 0.304,-2.743 2.086,-8.192 3.711,-11.09 9.793,-17.664 30.043,-25.098 51.796,-32.09 21.508,-6.91 43.024,-13.106 59.211,-24.656 17.422,-12.422 29.313,-29.192 29.2,-55.102 -0.176,-37.012 -25.653,-62.242 -51.813,-74.019 -9.301,-4.172 -21,-6.543 -34.535,-5.747 -20.41,1.211 -33.789,7.344 -47.699,15.208 -4.035,2.277 -8.899,6.398 -14.809,6.179 -13.277,-0.535 -10.73,-19.258 -30,-14.82 -0.683,31.133 -0.851,62.781 -0.84,94.578 3.879,0.938 9.446,0.164 13.981,0.422 8.582,-34.848 19.902,-61.211 46.469,-77.309 7.515,-4.55 18.23,-9.324 30.835,-10.293 37.59,-2.879 64.137,26.977 53.461,61.274 -13.214,42.469 -66.382,38.543 -104.019,59.226 -12.469,6.821 -22.727,16.625 -29.195,30.008 -6.071,12.524 -10.692,30.789 -5.348,48.934 4.598,15.636 17.133,31.98 30.012,40.289 10.421,6.687 26.211,12.644 41.113,13.152 20.871,0.727 37.137,-6.64 50.574,-14.394 3.723,-2.149 6.992,-7.332 12.742,-6.993 8.836,0.551 9.637,13.539 15.633,18.11" /><path
         id="path18"
         style="fill:#fbbf16;fill-opacity:1;fill-rule:evenodd;stroke:none"
         d="m 108.109,370.754 c 21.121,0.023 45.129,-0.086 65.786,0 49.074,-62.094 94.898,-127.402 143.085,-190.363 0.754,20.964 0.415,45.886 0.415,71.136 0,24.887 1.289,50.313 0,71.52 -1.375,22.734 -14.403,33.461 -39.067,33.305 0.262,4.554 -0.515,10.117 0.418,13.984 30.883,0.316 60.539,-0.578 91.277,-0.418 0.934,-3.848 0.165,-9.438 0.411,-13.961 -18.832,-0.613 -34.395,-7.242 -36.176,-25.508 -1.641,-16.738 0,-35.758 0,-54.683 0,-52.7 0,-113.371 0,-164.055 -6.074,0.262 -13.11,-0.5 -18.5,0.418 -50.133,66.504 -98.996,134.285 -149.668,200.238 -0.664,-34.746 -0.422,-83.722 -0.422,-124.562 0,-17.344 -2.402,-36.567 3.707,-46.899 6.895,-11.629 20.309,-13.687 37.41,-15.215 -0.074,-4.707 0.387,-9.961 -0.808,-13.562 -33.907,0.281 -64.008,-0.691 -97.868,-0.418 -0.929,3.727 -0.156,9.168 -0.41,13.57 18.313,0.996 37.082,5.664 39.473,23.867 0.98,7.524 0,15.707 0,23.832 0,45.625 0,94.008 0,140.629 0,8.106 1.512,17.051 0.41,23.028 -0.812,4.398 -6.684,10.648 -10.273,13.125 -7.739,5.371 -19.907,5.648 -30.028,6.59 -0.23,5.64 0.532,9.113 0,13.164 -0.011,0.703 0.317,1.07 0.828,1.238" /><path
         id="path20"
         style="fill:#fbbf16;fill-opacity:1;fill-rule:evenodd;stroke:none"
         d="m 458.008,343.215 c -2.68,-5.598 -2.465,-15.27 -2.465,-23.856 0,-54.578 0,-103.011 0,-157.894 0,-9.11 -0.52,-18.621 2.062,-24.246 4.231,-9.258 15.618,-10.93 27.551,-11.938 27.461,-2.343 51.489,2.27 66.606,15.215 10.113,8.652 16.754,20.332 20.972,34.121 8.371,27.434 8.082,69.949 5.336,101.977 -1.578,18.39 -4.984,31.742 -11.922,43.57 -13.429,22.938 -37.371,36.383 -76.066,34.555 -14.578,-0.699 -26.496,0.047 -32.074,-11.504 z m -77.703,26.703 c 62.797,-2.598 132.664,7.484 176.394,-12.32 20.551,-9.313 38.203,-25.489 50.571,-43.989 12.972,-19.425 19.738,-43.879 19.738,-74.445 0,-59 -29.328,-97.711 -71.129,-116.762 -23.113,-10.515 -51.387,-10.691 -83.883,-10.691 -31.461,0 -61.691,0.625 -92.933,0.418 -0.668,3.601 -0.668,9.949 0,13.562 15.191,0.832 29.843,0.754 34.128,13.579 3.493,10.437 1.649,31.503 1.649,47.695 0,31.055 0.144,67.523 0.41,96.215 0.141,15.558 1,31.5 -0.41,47.683 -0.957,10.946 -6.281,20.16 -15.215,23.024 -5.633,1.801 -15.285,1.754 -19.738,2.07 -0.707,3.652 -0.301,8.453 -0.41,12.738 0.363,0.328 0.25,1.129 0.828,1.223" /><path
         id="path22"
         style="fill:#fbbf16;fill-opacity:1;fill-rule:evenodd;stroke:none"
         d="m 1077.64,370.434 c 0.24,-3.625 -0.16,-9.536 0,-14.395 -16.44,-0.742 -29.44,-3.601 -34.13,-15.617 -2.86,-7.356 -2.06,-18.348 -2.06,-27.973 0,-29.847 0.01,-59.64 0,-89.207 0,-19.656 2.21,-41.797 -1.64,-58 -10.45,-44.058 -59.126,-67.9764 -116.759,-55.918 -30.613,6.43 -57.949,23.637 -67.016,51.809 -3.918,12.097 -3.707,27.43 -3.707,43.152 0,31.367 -0.418,60.145 -0.418,92.547 0,7.422 0.379,15.277 0,23.438 -0.758,16.328 -0.879,29.714 -13.566,34.128 -7.067,2.473 -15.047,0.829 -23.438,2.473 -0.078,5.356 -0.105,8.25 0,13.563 37.828,0 75.657,0 113.485,0 -0.086,-6.469 0.015,-8.868 -0.411,-14.395 -16.902,0.352 -30.214,-0.762 -34.96,-11.914 -2.165,-5.141 -1.473,-13.195 -1.227,-19.75 0.824,-21.555 -0.098,-47.285 0,-65.781 0.086,-15.11 0.199,-30.547 0.414,-43.992 0.254,-15.571 -1.156,-29.934 0.813,-43.989 4.918,-34.675 37.621,-54.004 77.308,-47.3 24.684,4.199 44.552,19.824 51.802,41.929 4.16,12.696 2.88,28.242 2.88,43.613 0,30.598 -0.42,61.399 -0.42,89.204 0,23.062 1.44,45.839 -14.78,54.277 -6.7,3.488 -15.158,2.527 -25.087,4.109 0,4.664 0,9.328 0,13.989 31.327,-0.477 64.877,1.007 92.917,0" /><path
         id="path24"
         style="fill:#ffffff;fill-opacity:1;fill-rule:nonzero;stroke:none"
         d="m 1166.67,372.234 h 8.32 l 82.02,-103.402 v 103.402 h 8.49 V 253.379 h -6.62 l -83.72,105.609 V 253.379 h -8.49 v 118.855" /><path
         id="path26"
         style="fill:#ffffff;fill-opacity:1;fill-rule:nonzero;stroke:none"
         d="m 1403.34,312.473 v 0.332 c 0,29.379 -21.39,53.488 -50.77,53.488 -29.37,0 -50.43,-23.766 -50.43,-53.141 v -0.347 c 0,-29.375 21.4,-53.485 50.78,-53.485 29.36,0 50.42,23.778 50.42,53.153 z m -110.37,0 v 0.332 c 0,32.429 23.94,61.468 59.95,61.468 35.99,0 59.59,-28.691 59.59,-61.121 0.17,-0.179 0.17,-0.179 0,-0.347 0,-32.43 -23.95,-61.461 -59.94,-61.461 -36.01,0 -59.6,28.683 -59.6,61.129" /><path
         id="path28"
         style="fill:#ffffff;fill-opacity:1;fill-rule:nonzero;stroke:none"
         d="m 1488.9,310.598 c 19.88,0 34.63,10.015 34.63,27.175 v 0.329 c 0,15.961 -12.55,25.984 -34.13,25.984 h -40.58 v -53.488 z m -48.91,61.636 h 49.93 c 14.6,0 26.3,-4.586 33.45,-11.714 5.6,-5.614 8.97,-13.582 8.97,-22.067 v -0.351 c 0,-19.86 -14.75,-31.231 -34.78,-33.954 l 39.21,-50.769 h -11.19 l -37.88,49.25 h -38.88 v -49.25 h -8.83 v 118.855" /><path
         id="path30"
         style="fill:#ffffff;fill-opacity:1;fill-rule:nonzero;stroke:none"
         d="m 1591.44,364.086 h -41.45 v 8.148 h 91.7 v -8.148 h -41.45 V 253.379 h -8.8 v 110.707" /><path
         id="path32"
         style="fill:#ffffff;fill-opacity:1;fill-rule:nonzero;stroke:none"
         d="m 1665.94,372.234 h 8.84 v -55.015 h 76.06 v 55.015 h 8.84 V 253.379 h -8.84 v 55.691 h -76.06 v -55.691 h -8.84 v 118.855" /><path
         id="path34"
         style="fill:#ffffff;fill-opacity:1;fill-rule:nonzero;stroke:none"
         d="m 1878.64,261.531 c 33.13,0 54.02,22.574 54.02,50.942 v 0.332 c 0,28.187 -20.89,51.281 -54.02,51.281 h -30.72 V 261.531 Z m -39.55,110.703 h 39.55 c 37.39,0 63.19,-25.636 63.19,-59.082 v -0.347 c 0,-33.446 -25.8,-59.426 -63.19,-59.426 h -39.55 v 118.855" /><path
         id="path36"
         style="fill:#ffffff;fill-opacity:1;fill-rule:nonzero;stroke:none"
         d="m 2042.16,294.629 -31.25,68.777 -31.43,-68.777 z m -35.33,78.453 h 8.49 l 55.35,-119.703 h -9.66 l -15.1,33.281 h -70.16 l -15.1,-33.281 h -9.16 l 55.34,119.703" /><path
         id="path38"
         style="fill:#ffffff;fill-opacity:1;fill-rule:nonzero;stroke:none"
         d="m 2093.24,372.234 h 8.86 v -78.109 l 75.72,78.109 h 12.04 l -51.96,-52.468 54.16,-66.387 h -11.56 l -48.88,60.101 -29.52,-29.882 v -30.219 h -8.86 v 118.855" /><path
         id="path40"
         style="fill:#ffffff;fill-opacity:1;fill-rule:nonzero;stroke:none"
         d="m 2308.66,312.473 v 0.332 c 0,29.379 -21.38,53.488 -50.76,53.488 -29.36,0 -50.41,-23.766 -50.41,-53.141 v -0.347 c 0,-29.375 21.37,-53.485 50.76,-53.485 29.38,0 50.41,23.778 50.41,53.153 z m -110.37,0 v 0.332 c 0,32.429 23.97,61.468 59.96,61.468 35.99,0 59.59,-28.691 59.59,-61.121 0.16,-0.179 0.16,-0.179 0,-0.347 0,-32.43 -23.93,-61.461 -59.94,-61.461 -36,0 -59.61,28.683 -59.61,61.129" /><path
         id="path42"
         style="fill:#ffffff;fill-opacity:1;fill-rule:nonzero;stroke:none"
         d="m 2368.94,364.086 h -41.43 v 8.148 h 91.68 v -8.148 h -41.43 V 253.379 h -8.82 v 110.707" /><path
         id="path44"
         style="fill:#ffffff;fill-opacity:1;fill-rule:nonzero;stroke:none"
         d="m 2508.63,294.629 -31.23,68.777 -31.39,-68.777 z m -35.3,78.453 h 8.49 l 55.36,-119.703 h -9.69 l -15.11,33.281 h -70.1 l -15.15,-33.281 h -9.16 l 55.36,119.703" /><path
         id="path46"
         style="fill:#ffffff;fill-opacity:1;fill-rule:nonzero;stroke:none"
         d="m 1159.03,130.637 5.77,6.636 c 13.08,-12.046 25.13,-17.656 42.62,-17.656 17.83,0 30.06,10.012 30.06,23.598 v 0.332 c 0,12.574 -6.62,19.871 -33.62,25.32 -28.53,5.75 -40.08,15.442 -40.08,33.43 v 0.351 c 0,17.657 16.14,31.235 38.21,31.235 17.32,0 28.7,-4.75 40.75,-14.43 l -5.6,-6.965 c -11.21,9.68 -22.41,13.418 -35.49,13.418 -17.49,0 -29.03,-10.015 -29.03,-22.422 v -0.332 c 0,-12.554 6.45,-20.214 34.63,-25.996 27.51,-5.601 39.07,-15.445 39.07,-32.754 v -0.339 c 0,-19.192 -16.49,-32.43 -39.41,-32.43 -19.01,0 -33.61,6.265 -47.88,19.004" /><path
         id="path48"
         style="fill:#ffffff;fill-opacity:1;fill-rule:nonzero;stroke:none"
         d="m 1304.03,224.043 h -41.43 v 8.145 h 91.69 v -8.145 h -41.43 V 113.328 h -8.83 v 110.715" /><path
         id="path50"
         style="fill:#ffffff;fill-opacity:1;fill-rule:nonzero;stroke:none"
         d="m 1444.6,154.59 -31.25,68.769 -31.42,-68.769 z m -35.33,78.441 h 8.49 l 55.36,-119.703 h -9.69 l -15.1,33.281 h -70.12 l -15.12,-33.281 h -9.19 l 55.37,119.703" /><path
         id="path52"
         style="fill:#ffffff;fill-opacity:1;fill-rule:nonzero;stroke:none"
         d="m 1514.17,224.043 h -41.43 v 8.145 h 91.68 v -8.145 H 1523 V 113.328 h -8.83 v 110.715" /><path
         id="path54"
         style="fill:#ffffff;fill-opacity:1;fill-rule:nonzero;stroke:none"
         d="m 1591.42,232.188 h 84.55 v -8.145 h -75.75 v -46.707 h 68.11 v -8.137 h -68.11 v -47.722 h 76.59 v -8.149 h -85.39 v 118.86" /><path
         id="path56"
         style="fill:#ffffff;fill-opacity:1;fill-rule:nonzero;stroke:none"
         d="m 1750.8,162.742 v 69.446 h 8.84 v -68.602 c 0,-28.027 15.1,-44.145 40.23,-44.145 24.12,0 39.59,14.614 39.59,43.301 v 69.446 h 8.81 v -68.426 c 0,-34.133 -19.86,-52.309 -48.73,-52.309 -28.53,0 -48.74,18.012 -48.74,51.289" /><path
         id="path58"
         style="fill:#ffffff;fill-opacity:1;fill-rule:nonzero;stroke:none"
         d="m 1878.63,232.188 h 8.33 l 82.01,-103.411 v 103.411 h 8.48 v -118.86 h -6.6 l -83.71,105.625 V 113.328 h -8.51 v 118.86" /><path
         id="path60"
         style="fill:#ffffff;fill-opacity:1;fill-rule:nonzero;stroke:none"
         d="m 2008.84,113.328 h 8.8398 v 118.859 h -8.8398 z" /><path
         id="path62"
         style="fill:#ffffff;fill-opacity:1;fill-rule:nonzero;stroke:none"
         d="m 2042.28,232.188 h 9.86 l 46.51,-109.356 46.7,109.356 h 9.34 l -52.28,-119.7 h -7.83 l -52.3,119.7" /><path
         id="path64"
         style="fill:#ffffff;fill-opacity:1;fill-rule:nonzero;stroke:none"
         d="m 2178.09,232.188 h 84.58 v -8.145 h -75.75 v -46.707 h 68.09 v -8.137 h -68.09 v -47.722 h 76.58 v -8.149 h -85.41 v 118.86" /><path
         id="path66"
         style="fill:#ffffff;fill-opacity:1;fill-rule:nonzero;stroke:none"
         d="m 2339.06,170.535 c 19.86,0 34.61,10.031 34.61,27.192 v 0.32 c 0,15.969 -12.55,25.996 -34.13,25.996 h -40.57 v -53.508 z m -48.92,61.653 h 49.92 c 14.6,0 26.32,-4.598 33.46,-11.727 5.6,-5.606 8.99,-13.574 8.99,-22.07 v -0.344 c 0,-19.856 -14.76,-31.223 -34.8,-33.953 l 39.2,-50.766 h -11.19 l -37.86,49.262 h -38.89 v -49.262 h -8.83 v 118.86" /><path
         id="path68"
         style="fill:#ffffff;fill-opacity:1;fill-rule:nonzero;stroke:none"
         d="m 2403.54,130.637 5.77,6.636 c 13.06,-12.046 25.11,-17.656 42.61,-17.656 17.83,0 30.07,10.012 30.07,23.598 v 0.332 c 0,12.574 -6.63,19.871 -33.63,25.32 -28.54,5.75 -40.08,15.442 -40.08,33.43 v 0.351 c 0,17.657 16.14,31.235 38.2,31.235 17.33,0 28.71,-4.75 40.75,-14.43 l -5.59,-6.965 c -11.21,9.68 -22.41,13.418 -35.48,13.418 -17.48,0 -29.04,-10.015 -29.04,-22.422 v -0.332 c 0,-12.554 6.45,-20.214 34.65,-25.996 27.5,-5.601 39.06,-15.445 39.06,-32.754 v -0.339 c 0,-19.192 -16.49,-32.43 -39.41,-32.43 -19.01,0 -33.63,6.265 -47.88,19.004" /><path
         id="path70"
         style="fill:#ffffff;fill-opacity:1;fill-rule:nonzero;stroke:none"
         d="m 2519.31,113.328 h 8.832 v 118.859 h -8.832 z" /><path
         id="path72"
         style="fill:#ffffff;fill-opacity:1;fill-rule:nonzero;stroke:none"
         d="m 2595.88,224.043 h -41.44 v 8.145 h 91.71 v -8.145 h -41.43 V 113.328 h -8.84 v 110.715" /><path
         id="path74"
         style="fill:#ffffff;fill-opacity:1;fill-rule:nonzero;stroke:none"
         d="m 2709.96,160.359 -50.93,71.829 h 11.04 l 44.47,-63.86 44.67,63.86 h 10.52 l -50.93,-71.653 v -47.207 h -8.84 v 47.031" /></g></g></svg>
