<?xml version="1.0" encoding="UTF-8" standalone="no"?>
<!DOCTYPE svg PUBLIC "-//W3C//DTD SVG 1.1//EN" "http://www.w3.org/Graphics/SVG/1.1/DTD/svg11.dtd">
<svg width="100%" height="100%" viewBox="0 0 1180 246" version="1.1" xmlns="http://www.w3.org/2000/svg" xmlns:xlink="http://www.w3.org/1999/xlink" xml:space="preserve" xmlns:serif="http://www.serif.com/" style="fill-rule:evenodd;clip-rule:evenodd;stroke-linejoin:round;stroke-miterlimit:2;">
    <g transform="matrix(4.16667,0,0,4.16667,0,0)">
        <path d="M88.665,13.294L89.933,13.294C89.851,16.888 89.915,20.943 89.884,24.162L88.421,24.162C87.691,21.762 86.986,19.34 85.546,17.534C84.13,15.758 82.229,14.289 79.113,14.512C76.273,14.716 74.002,16.969 74.386,20.507C74.421,20.832 74.633,21.477 74.826,21.823C75.987,23.915 78.387,24.795 80.966,25.624C83.515,26.444 86.064,27.181 87.984,28.548C90.05,30.021 91.457,32.008 91.445,35.079C91.423,39.467 88.403,42.456 85.303,43.851C84.201,44.345 82.816,44.626 81.208,44.533C78.79,44.39 77.205,43.66 75.556,42.73C75.077,42.459 74.501,41.971 73.801,41.998C72.226,42.063 72.529,44.281 70.244,43.753C70.164,40.065 70.144,36.316 70.146,32.543C70.605,32.434 71.265,32.526 71.804,32.497C72.82,36.627 74.162,39.75 77.311,41.658C78.201,42.198 79.471,42.761 80.966,42.876C85.42,43.218 88.567,39.682 87.3,35.615C85.736,30.582 79.434,31.045 74.971,28.597C73.496,27.787 72.279,26.626 71.511,25.039C70.792,23.554 70.244,21.39 70.878,19.24C71.423,17.386 72.909,15.447 74.435,14.464C75.67,13.669 77.54,12.965 79.309,12.904C81.783,12.82 83.71,13.691 85.303,14.61C85.744,14.864 86.131,15.48 86.814,15.438C87.861,15.375 87.956,13.835 88.665,13.294Z" style="fill:rgb(255,198,47);"/>
        <path d="M7.473,13.343C9.977,13.34 12.823,13.352 15.271,13.343C21.086,20.702 26.519,28.443 32.23,35.907C32.319,33.422 32.279,30.466 32.279,27.476C32.279,24.523 32.432,21.511 32.279,18.997C32.116,16.303 30.571,15.031 27.649,15.049C27.68,14.51 27.588,13.85 27.698,13.392C31.358,13.354 34.874,13.46 38.518,13.441C38.628,13.899 38.536,14.559 38.566,15.098C36.334,15.17 34.489,15.954 34.277,18.119C34.083,20.105 34.277,22.359 34.277,24.601L34.277,44.046C33.559,44.017 32.723,44.105 32.084,43.998C26.143,36.114 20.351,28.081 14.345,20.264C14.265,24.381 14.296,30.188 14.296,35.03C14.296,37.082 14.011,39.364 14.734,40.586C15.552,41.965 17.143,42.207 19.169,42.389C19.159,42.947 19.214,43.57 19.072,43.998C15.055,43.964 11.486,44.08 7.473,44.046C7.363,43.603 7.455,42.96 7.424,42.438C9.595,42.32 11.819,41.767 12.103,39.612C12.221,38.717 12.103,37.748 12.103,36.785L12.103,20.117C12.103,19.156 12.282,18.096 12.152,17.388C12.056,16.865 11.36,16.123 10.933,15.829C10.017,15.195 8.575,15.161 7.375,15.049C7.347,14.382 7.437,13.97 7.375,13.489C7.373,13.406 7.412,13.363 7.473,13.343Z" style="fill:rgb(255,198,47);"/>
        <path d="M48.947,16.608C48.628,17.27 48.654,18.415 48.654,19.435L48.654,38.149C48.654,39.231 48.592,40.358 48.898,41.024C49.4,42.119 50.749,42.318 52.164,42.438C55.419,42.712 58.266,42.168 60.058,40.634C61.257,39.609 62.044,38.226 62.543,36.588C63.537,33.34 63.502,28.299 63.177,24.503C62.991,22.323 62.586,20.742 61.764,19.338C60.172,16.62 57.335,15.025 52.748,15.244C51.019,15.326 49.607,15.236 48.947,16.608ZM39.736,13.441C47.179,13.751 55.46,12.554 60.643,14.903C63.08,16.007 65.172,17.923 66.638,20.117C68.174,22.419 68.976,25.316 68.976,28.938C68.976,35.935 65.501,40.523 60.545,42.779C57.806,44.027 54.456,44.046 50.603,44.046C46.875,44.046 43.292,43.972 39.589,43.998C39.509,43.568 39.509,42.816 39.589,42.389C41.389,42.291 43.126,42.302 43.635,40.782C44.048,39.543 43.83,37.046 43.83,35.127C43.83,31.447 43.847,27.122 43.878,23.723C43.895,21.879 43.997,19.99 43.83,18.07C43.716,16.774 43.084,15.68 42.026,15.341C41.358,15.127 40.215,15.134 39.687,15.098C39.602,14.662 39.65,14.095 39.639,13.587C39.68,13.547 39.667,13.453 39.736,13.441Z" style="fill:rgb(255,198,47);"/>
        <path d="M122.391,13.381C122.419,13.812 122.372,14.511 122.391,15.087C120.441,15.175 118.901,15.514 118.346,16.939C118.005,17.812 118.102,19.113 118.102,20.252L118.102,30.829C118.102,33.16 118.363,35.782 117.908,37.7C116.667,42.923 110.898,45.757 104.066,44.328C100.437,43.568 97.199,41.53 96.122,38.187C95.661,36.754 95.683,34.939 95.683,33.071C95.683,29.357 95.634,25.946 95.634,22.105C95.634,21.225 95.679,20.295 95.634,19.327C95.545,17.392 95.531,15.806 94.027,15.282C93.189,14.99 92.243,15.184 91.249,14.989C91.24,14.353 91.236,14.01 91.249,13.381L104.7,13.381C104.69,14.147 104.701,14.431 104.652,15.087C102.648,15.043 101.07,15.179 100.509,16.5C100.251,17.108 100.334,18.063 100.362,18.839C100.459,21.394 100.352,24.445 100.362,26.637C100.371,28.427 100.387,30.258 100.412,31.852C100.441,33.696 100.273,35.399 100.509,37.066C101.092,41.174 104.965,43.466 109.671,42.671C112.598,42.174 114.951,40.324 115.812,37.7C116.305,36.198 116.153,34.355 116.153,32.534C116.152,28.907 116.103,25.258 116.103,21.958C116.103,19.226 116.273,16.525 114.35,15.525C113.555,15.112 112.554,15.227 111.377,15.038L111.377,13.381C115.09,13.436 119.066,13.262 122.391,13.381Z" style="fill:rgb(255,198,47);"/>
        <path d="M132.288,13.404L133.268,13.404L138.889,21.686L144.51,13.404L145.49,13.404L145.49,27.407L144.45,27.407L144.45,15.245L138.909,23.306L138.829,23.306L133.288,15.245L133.288,27.407L132.288,27.407L132.288,13.404Z" style="fill:white;fill-rule:nonzero;"/>
        <path d="M148.767,21.586L148.767,13.404L149.807,13.404L149.807,21.486C149.807,24.787 151.588,26.687 154.548,26.687C157.389,26.687 159.209,24.967 159.209,21.586L159.209,13.404L160.249,13.404L160.249,21.466C160.249,25.487 157.909,27.627 154.508,27.627C151.147,27.627 148.767,25.507 148.767,21.586Z" style="fill:white;fill-rule:nonzero;"/>
        <path d="M162.687,25.367L163.367,24.586C164.907,26.007 166.327,26.667 168.388,26.667C170.488,26.667 171.929,25.487 171.929,23.886L171.929,23.847C171.929,22.366 171.148,21.506 167.968,20.866C164.607,20.186 163.247,19.045 163.247,16.925L163.247,16.885C163.247,14.805 165.147,13.204 167.748,13.204C169.788,13.204 171.129,13.764 172.549,14.905L171.889,15.725C170.568,14.584 169.248,14.144 167.708,14.144C165.647,14.144 164.287,15.325 164.287,16.785L164.287,16.825C164.287,18.305 165.047,19.206 168.368,19.886C171.608,20.546 172.969,21.706 172.969,23.747L172.969,23.787C172.969,26.047 171.028,27.607 168.328,27.607C166.088,27.607 164.367,26.867 162.687,25.367Z" style="fill:white;fill-rule:nonzero;"/>
        <rect x="176.007" y="13.404" width="1.04" height="14.003" style="fill:white;fill-rule:nonzero;"/>
        <path d="M180.326,20.446L180.326,20.406C180.326,16.445 183.287,13.164 187.328,13.164C189.828,13.164 191.329,14.084 192.77,15.405L192.029,16.165C190.809,14.984 189.408,14.104 187.308,14.104C183.947,14.104 181.407,16.845 181.407,20.366L181.407,20.406C181.407,23.946 183.987,26.707 187.328,26.707C189.349,26.707 190.729,25.927 192.149,24.527L192.85,25.206C191.369,26.667 189.769,27.647 187.288,27.647C183.287,27.647 180.326,24.467 180.326,20.446Z" style="fill:white;fill-rule:nonzero;"/>
        <path d="M131.667,36.946L131.667,36.906C131.667,32.945 134.628,29.664 138.669,29.664C141.169,29.664 142.67,30.584 144.11,31.905L143.37,32.665C142.149,31.484 140.75,30.604 138.649,30.604C135.288,30.604 132.748,33.345 132.748,36.866L132.748,36.906C132.748,40.447 135.328,43.207 138.669,43.207C140.689,43.207 142.069,42.427 143.49,41.027L144.19,41.706C142.709,43.167 141.109,44.148 138.629,44.148C134.628,44.148 131.667,40.967 131.667,36.946Z" style="fill:white;fill-rule:nonzero;"/>
        <path d="M159.43,36.946L159.43,36.906C159.43,33.445 156.909,30.604 153.448,30.604C149.987,30.604 147.507,33.405 147.507,36.866L147.507,36.906C147.507,40.367 150.027,43.207 153.488,43.207C156.949,43.207 159.43,40.407 159.43,36.946ZM146.427,36.946L146.427,36.906C146.427,33.085 149.247,29.664 153.488,29.664C157.729,29.664 160.51,33.045 160.51,36.866L160.51,36.906C160.51,40.727 157.689,44.148 153.448,44.148C149.207,44.148 146.427,40.767 146.427,36.946Z" style="fill:white;fill-rule:nonzero;"/>
        <path d="M163.848,29.904L164.827,29.904L170.448,38.186L176.07,29.904L177.051,29.904L177.051,43.908L176.01,43.908L176.01,31.745L170.469,39.806L170.389,39.806L164.848,31.745L164.848,43.908L163.848,43.908L163.848,29.904Z" style="fill:white;fill-rule:nonzero;"/>
        <path d="M185.889,37.726C188.489,37.726 190.249,36.366 190.249,34.285L190.249,34.245C190.249,32.025 188.528,30.864 186.008,30.864L182.048,30.864L182.048,37.726L185.889,37.726ZM181.007,29.904L186.088,29.904C189.169,29.904 191.289,31.484 191.289,34.185L191.289,34.225C191.289,37.166 188.749,38.686 185.828,38.686L182.048,38.686L182.048,43.908L181.007,43.908L181.007,29.904Z" style="fill:white;fill-rule:nonzero;"/>
        <path d="M206.55,36.946L206.55,36.906C206.55,33.445 204.029,30.604 200.568,30.604C197.108,30.604 194.628,33.405 194.628,36.866L194.628,36.906C194.628,40.367 197.148,43.207 200.608,43.207C204.069,43.207 206.55,40.407 206.55,36.946ZM193.547,36.946L193.547,36.906C193.547,33.085 196.368,29.664 200.608,29.664C204.85,29.664 207.63,33.045 207.63,36.866L207.63,36.906C207.63,40.727 204.81,44.148 200.568,44.148C196.328,44.148 193.547,40.767 193.547,36.946Z" style="fill:white;fill-rule:nonzero;"/>
        <path d="M210.067,41.867L210.747,41.086C212.287,42.507 213.708,43.167 215.769,43.167C217.868,43.167 219.309,41.987 219.309,40.386L219.309,40.347C219.309,38.867 218.528,38.006 215.348,37.366C211.987,36.686 210.627,35.545 210.627,33.425L210.627,33.385C210.627,31.305 212.527,29.704 215.128,29.704C217.169,29.704 218.509,30.264 219.929,31.405L219.269,32.225C217.948,31.084 216.628,30.645 215.088,30.645C213.027,30.645 211.667,31.825 211.667,33.285L211.667,33.325C211.667,34.805 212.428,35.706 215.748,36.386C218.989,37.046 220.35,38.206 220.35,40.247L220.35,40.287C220.35,42.547 218.409,44.108 215.708,44.108C213.468,44.108 211.747,43.368 210.067,41.867Z" style="fill:white;fill-rule:nonzero;"/>
        <rect x="223.708" y="29.904" width="1.04" height="14.004" style="fill:white;fill-rule:nonzero;"/>
        <path d="M232.628,30.864L227.747,30.864L227.747,29.904L238.549,29.904L238.549,30.864L233.668,30.864L233.668,43.908L232.628,43.908L232.628,30.864Z" style="fill:white;fill-rule:nonzero;"/>
        <rect x="241.547" y="29.904" width="1.04" height="14.004" style="fill:white;fill-rule:nonzero;"/>
        <path d="M259.068,36.946L259.068,36.906C259.068,33.445 256.548,30.604 253.087,30.604C249.627,30.604 247.146,33.405 247.146,36.866L247.146,36.906C247.146,40.367 249.667,43.207 253.127,43.207C256.588,43.207 259.068,40.407 259.068,36.946ZM246.065,36.946L246.065,36.906C246.065,33.085 248.887,29.664 253.127,29.664C257.368,29.664 260.148,33.045 260.148,36.866L260.148,36.906C260.148,40.727 257.328,44.148 253.087,44.148C248.847,44.148 246.065,40.767 246.065,36.946Z" style="fill:white;fill-rule:nonzero;"/>
        <path d="M263.485,29.904L264.466,29.904L274.128,42.087L274.128,29.904L275.128,29.904L275.128,43.908L274.348,43.908L264.486,31.464L264.486,43.908L263.485,43.908L263.485,29.904Z" style="fill:white;fill-rule:nonzero;"/>
    </g>
</svg>
